Patient4_TMGait_0pt2_03_right_07_EMG.mot
version=1
nRows=20
nColumns=33
inDegrees=no
endheader
time	1LAddLong	2LGlutMax	3LGlutMed	4LIliopsoas	5LSemiMemb	6LBicFemLong	7LRecFem	8LVastMed	9LVastLat	10LGasMed	11LTibAnt	12lTibPost	13LPeroneusLong	14LSol	15LExtDigLong	16LFlexDigLong	17RAddLong	18RGlutMax	19RGlutMed	20RIliopsoas	21RSemiMemb	22RBicFemLong	23RRecFem	24RVastMed	25RVastLat	26RGasMed	27RTibAnt	28RTibPost	29RPeroneusLong	30RSol	31RExtDigLong	32RFlexDigLong
14.84	0.00412	0.034332	-0.082703	0.017853	-0.010071	-0.039978	-0.018463	0.036469	0.49713	0.019531	0.27298	-0.005798	-0.041351	0.045776	0.035095	0.006256	0.07843	-0.6842	-0.061646	-0.16876	-0.23789	-0.083008	-0.069275	0.033722	-0.010681	-0.012207	-0.064392	-0.009613	0.068665	0.12482	0.004425	-0.025024
14.841	0.016174	0.021515	-0.053253	0.013275	0.044403	0.00351	0.056458	0.024719	0.22598	0.006866	0.19531	0.011597	0.001526	0.05127	0.18707	0.018005	0.10559	-0.65353	0.040436	-0.079346	-0.2269	-0.088196	-0.028534	0.020447	-0.016174	-0.013733	-0.084534	-0.007172	0.10483	0.065155	0.004272	-0.023193
14.842	0.008392	0.054932	-0.016937	-0.015869	0.017548	0.012054	0.087585	0.037689	0.006409	0.004425	0.084381	0.000305	0.020142	0.087433	0.065155	0.018158	0.12039	-0.63065	0.35538	0.023346	-0.23056	-0.09903	-0.015411	-0.054932	-0.010986	-0.010681	-0.090027	-0.006256	0.022125	-0.099945	0.001068	-0.018616
14.843	0.014648	0.10056	0.016327	-0.016785	-0.010834	0.025635	-0.006714	0.020294	-0.17532	0.018158	-0.15503	0.003204	0.031281	0.047607	-0.098572	-0.00473	0.11124	-0.53558	0.14114	0.027161	-0.25482	-0.098877	0.009308	-0.037079	-0.005341	-0.015869	0.41321	-0.004272	-0.076752	-0.13473	-0.001526	-0.02182
14.844	-0.001526	0.076447	0.027161	0.003967	-0.043945	0.065765	0.043335	0.02533	-0.1648	0.047455	0.098877	0.004578	0.062866	-0.001526	-0.12192	-0.000305	0.11612	-0.51392	-0.18707	-0.046997	-0.27283	-0.10422	-0.10315	-0.054169	-0.012817	-0.016785	0.38803	-0.003815	-0.12894	-0.10986	-0.00061	-0.02243
14.845	-0.001984	0.11414	0.13336	0.007172	-0.075378	0.12207	0.15762	0.048828	-0.16556	0.039978	0.28397	-0.007782	0.10162	0.031128	-0.05249	0.017853	0.16022	-0.47958	-0.019073	-0.055084	-0.24475	-0.049133	-0.13245	-0.043335	0.002136	-0.013123	0.61279	-0.005341	-0.18982	-0.12375	-0.001068	-0.01709
14.846	0.008392	0.16113	0.10574	-0.00061	-0.054626	0.075226	0.13947	0.042419	-0.38803	0.018921	0.22385	-0.000763	0.067444	0.092163	-0.010376	0.010223	0.1767	-0.39993	0.23254	0.084229	-0.24735	-0.029297	-0.12878	-0.021973	0.000763	-0.014496	0.73654	0.001068	-0.17456	-0.13367	-0.002747	-0.00885
14.847	-0.008392	0.17044	-0.000305	0.003967	0.008392	0.048218	0.050507	0.0354	-0.4422	-0.036621	-0.031433	-0.006866	-0.022125	0	0.006714	0.022888	0.11932	-0.34851	-0.090637	0.18616	-0.24979	-0.05722	-0.14542	-0.001221	0.011749	-0.00351	0.15091	-0.002899	-0.059814	-0.1442	0.00473	-0.00885
14.848	-0.006561	0.13794	0.035858	0.006561	0.012054	0.048523	0.015564	0.012512	-0.5719	-0.01236	-0.21515	-0.010223	0.021667	-0.064392	0.061646	0.011292	0.033722	-0.3244	0.29221	0.071106	-0.24658	-0.038147	-0.16388	0.039978	0.005188	0.004425	-0.53101	-0.001526	0.10849	-0.12085	0.00061	-0.003662
14.849	0.010681	0.10361	0.019836	0.019684	0.018921	0.099182	-0.02182	-0.001678	-0.5249	0.008698	-0.25909	-0.006409	-0.12924	-0.10162	0.12344	0.019531	-0.084229	-0.2565	0.34271	0.070648	-0.23972	-0.046234	-0.20065	0.058441	0.013885	-0.00061	-0.73898	-0.00473	0.20477	0.020752	0.000763	-0.004578
14.85	-0.003815	0.019989	-0.052338	0.026245	0.02533	0.12161	-0.017853	-0.00061	-0.26993	0.012054	-0.13702	-0.011444	-0.14908	-0.060272	0.14755	0.032349	-0.13168	-0.25223	-0.35751	0.11475	-0.22369	-0.035248	-0.25589	0.091095	0.031433	0.001373	-0.36194	-0.001373	0.16541	-0.03479	0.005341	-0.01358
14.851	0.007782	-0.038605	-0.088654	-0.002289	0.012054	0.20493	-0.056	0.001526	-0.00473	-0.007629	-0.097351	-0.005035	0.32562	0.062866	0.14725	0.014496	-0.168	-0.25452	-0.40726	0.068054	-0.17853	-0.025024	-0.20767	0.078888	0.012665	-0.001678	0.12314	-0.002289	0.083008	0.05188	0.002747	-0.017395
14.852	0.015259	-0.023193	-0.11108	-0.002899	0.005188	0.24872	-0.030823	-0.001831	-0.001221	0.009155	-0.066071	-0.005646	0.75241	0.14069	0.017395	0.002899	-0.17578	-0.24521	0.031738	0.010529	-0.13001	0.030975	-0.20248	0.098724	0.005341	-0.002899	0.11658	-0.00412	0.12924	0.16617	0.002289	-0.018005
14.853	0.007172	-0.068512	-0.07309	-0.020599	-0.000458	0.27771	0.023651	-0.002747	-0.1268	0.061035	-0.047607	-0.002747	0.7663	-0.10559	0.21347	0.014343	-0.12268	-0.20508	0.45609	-0.26306	-0.10666	0.028229	-0.17136	0.054779	0.00824	-0.014191	0.31097	-0.005798	-0.040131	0.18646	0.001831	-0.018616
14.854	0.0177	-0.013123	0.004272	-0.019836	0.012054	0.23148	-0.005188	0.012665	-0.1886	0.05188	-0.023651	-0.001678	0.12848	-0.10346	-0.005188	0.028687	-0.090942	-0.12207	0.54169	-0.50919	-0.096436	0.020142	-0.23346	0.086975	0.006714	-0.013885	0.081787	-0.002289	0.059052	0.1471	-0.001221	-0.014038
14.855	0.024261	0.004578	-0.03006	-0.008087	0.001526	0.17899	-0.029755	0.031586	-0.31418	-0.042267	0.018768	-0.005951	0.18524	-0.024872	-0.12177	0.015411	-0.061035	-0.079346	0.20889	-0.26093	-0.083923	0.014038	-0.24674	0.075989	0.031586	-0.009003	-0.009155	-0.004272	0.14557	0.12161	0.001831	-0.009613
14.856	0.025787	-0.025635	-0.059967	0.026398	-0.00061	0.060883	0.012817	0.021973	-0.24628	-0.046539	0.016479	0.000305	0.12344	-0.022583	-0.21439	0.016937	-0.009155	-0.025024	-0.067902	0.037994	-0.059662	0.002594	-0.29251	0.08255	0.041351	-0.001526	-0.24872	-0.001373	0.16312	0.023651	0.000153	-0.013275
14.857	0.019226	-0.016479	-0.096893	0.063019	-0.008392	-0.17166	0.026093	0.016327	-0.1149	-0.006714	0.011292	-0.004578	-0.74951	-0.041351	-0.12512	0.029297	0.038757	0.050354	-0.23285	0.26276	-0.026093	0.011444	-0.29068	0.094299	0.049286	0.005646	-0.5658	-0.001526	0.045929	-0.031586	0.002747	-0.009918
14.858	0.015411	0.042877	0.17716	0.029907	-0.009613	-0.73273	0.062408	0.007019	-0.001831	-0.002136	0.006104	-0.013275	-0.97672	-0.034637	-0.11765	0.019836	0.084534	0.11063	0.088806	0.11826	-0.000763	0.009155	-0.27878	0.11612	0.044098	-0.012665	-0.24811	-0.001373	0.024261	-0.049744	0.005951	-0.006866
14.859	0.021667	0.032654	0.023956	0.011902	-0.041962	-0.44876	0.021515	-0.003967	0.073395	-0.044098	-0.014191	0.007172	-0.081177	0.018311	-0.096436	0.036163	0.11459	0.13336	0.28992	0.015106	0.019531	0.030823	-0.26291	0.11078	0.055237	-0.011597	0.24674	-0.00412	0.015259	-0.096741	0.003052	-0.009308
